<svg xmlns="http://www.w3.org/2000/svg" width="307.055" height="203" viewBox="0 0 307.055 203"><defs><style>.a{fill:#1a1311;}.b{fill:#005bac;}</style></defs><g transform="translate(0 0)"><g transform="translate(0 178.067)"><path class="a" d="M168.272,143.768h-8.918a3.158,3.158,0,0,0-2.591,2.134v-2.134H151.77v19.069h4.994V146.574h8.67v16.263h5V145.929A2.167,2.167,0,0,0,168.272,143.768Z" transform="translate(28.15 -137.906)"/><path class="a" d="M119.757,143.768H110.84a3.152,3.152,0,0,0-2.588,2.134v-2.134h-5v19.069h5V146.574h8.668v16.263h5V145.929A2.166,2.166,0,0,0,119.757,143.768Z" transform="translate(-53.727 -137.906)"/><path class="a" d="M205.8,143.768v16.263h-8.67V143.768h-5v16.911a2.166,2.166,0,0,0,2.161,2.158H203.2a3.152,3.152,0,0,0,2.591-2.131v2.131h5V143.768Z" transform="translate(96.262 -137.906)"/><path class="a" d="M148.62,141.587H135.91a2.707,2.707,0,0,0-2.7,2.7v19.534a2.705,2.705,0,0,0,2.7,2.7h12.71c5.542,0,10.079-4.857,10.079-10.794v-3.343C158.7,146.444,154.162,141.587,148.62,141.587Zm3.768,13.868c0,4.523-2.911,8.222-6.467,8.222h-6.464V144.428h6.464c3.556,0,6.467,3.7,6.467,8.222Z" transform="translate(-3.169 -141.586)"/><path class="a" d="M107.6,141.587h-3.545v17.894L91.073,141.587H87.525a2.707,2.707,0,0,0-2.7,2.7v19.534a2.705,2.705,0,0,0,2.7,2.7h3.548V148.623l12.981,17.894H107.6a2.7,2.7,0,0,0,2.7-2.7V144.285A2.705,2.705,0,0,0,107.6,141.587Z" transform="translate(-84.827 -141.586)"/><path class="a" d="M176.368,143.768h-14.4a2.167,2.167,0,0,0-2.158,2.161v6.62a2.167,2.167,0,0,0,2.158,2.158h11.56v5.324h-8.721v-3.542h-5v4.19a2.165,2.165,0,0,0,2.158,2.158h14.4a2.165,2.165,0,0,0,2.158-2.158v-6.62a2.165,2.165,0,0,0-2.158-2.158h-11.56v-5.327h8.721v3.545h5v-4.19A2.167,2.167,0,0,0,176.368,143.768Z" transform="translate(41.722 -137.906)"/><path class="a" d="M200.623,143.768h-14.4a2.168,2.168,0,0,0-2.161,2.161v6.62a2.167,2.167,0,0,0,2.161,2.158h11.557v5.324h-8.721v-3.542h-5v4.19a2.166,2.166,0,0,0,2.161,2.158h14.4a2.163,2.163,0,0,0,2.158-2.158v-6.62a2.163,2.163,0,0,0-2.158-2.158h-11.56v-5.327h8.721v3.545h5v-4.19A2.166,2.166,0,0,0,200.623,143.768Z" transform="translate(82.657 -137.906)"/><path class="a" d="M124,147.45l-7.709,6.793V141.587h-5v24.933h5v-8.691L124,166.519h6.225l-9.495-10.7,9.495-8.366Z" transform="translate(-40.154 -141.587)"/><rect class="a" width="4.995" height="19.07" transform="translate(113.308 5.863)"/><rect class="a" width="4.995" height="3.241" transform="translate(113.308)"/><path class="a" d="M160.261,143.768h-14.4a2.166,2.166,0,0,0-2.158,2.161v14.75a2.163,2.163,0,0,0,2.158,2.158h14.4a2.166,2.166,0,0,0,2.161-2.158v-4.19h-5v3.542H148.7v-5.324h11.557a2.167,2.167,0,0,0,2.161-2.158v-6.62A2.168,2.168,0,0,0,160.261,143.768Zm-2.836,8.133H148.7v-5.327h8.721Z" transform="translate(14.544 -137.906)"/><path class="a" d="M184.427,143.768h-14.4a2.166,2.166,0,0,0-2.158,2.161v14.75a2.163,2.163,0,0,0,2.158,2.158h14.4a2.166,2.166,0,0,0,2.161-2.158v-4.19h-5v3.542H172.87v-5.324h11.557a2.167,2.167,0,0,0,2.161-2.158v-6.62A2.168,2.168,0,0,0,184.427,143.768Zm-2.836,8.133H172.87v-5.327h8.721Z" transform="translate(55.328 -137.906)"/><path class="a" d="M191.208,162.087h-5.429V148.63h7.593v-2.806h-7.593V142.55h-5v3.274h-5.176v2.806h5.176v14.1a2.163,2.163,0,0,0,2.158,2.158h11.1a2.163,2.163,0,0,0,2.158-2.158v-4.19h-4.994Z" transform="translate(68.377 -139.961)"/><path class="a" d="M111.564,143.768h-12.4A2.168,2.168,0,0,0,97,145.929v2.825h5v-2.18h6.727v4.341h-7.383a5.962,5.962,0,1,0,0,11.922h12.379V145.929A2.168,2.168,0,0,0,111.564,143.768Zm-2.835,16.8H104.02a3.683,3.683,0,0,1-3.671-3.671v-.035a3.683,3.683,0,0,1,3.671-3.671h4.709Z" transform="translate(-67.15 -137.906)"/><path class="a" d="M134.842,143.768h-12.4a2.168,2.168,0,0,0-2.161,2.161v2.825h5v-2.18h6.727v4.341h-7.383a5.962,5.962,0,1,0,0,11.922H137V145.929A2.168,2.168,0,0,0,134.842,143.768Zm-2.835,16.8H127.3a3.683,3.683,0,0,1-3.671-3.671v-.035a3.683,3.683,0,0,1,3.671-3.671h4.709Z" transform="translate(-27.865 -137.906)"/></g><g transform="translate(62.258 0)"><path class="b" d="M192.545,201.514H107.992V94.211Z" transform="translate(-107.992 -43.474)"/><path class="b" d="M107.992,75.333h84.554v107.3Z" transform="translate(-107.992 -75.333)"/><path class="b" d="M203.244,75.333H145.2l43.3,79.02-43.3,79.02h58.048l43.3-79.02Z" transform="translate(-45.204 -75.333)"/></g></g></svg>